<svg width="11" height="12" viewBox="0 0 11 12" fill="none" xmlns="http://www.w3.org/2000/svg">
<g clip-path="url(#clip0_774_2355)">
<path d="M5.25 6C6.04565 6 6.80871 5.68393 7.37132 5.12132C7.93393 4.55871 8.25 3.79565 8.25 3C8.25 2.20435 7.93393 1.44129 7.37132 0.87868C6.80871 0.316071 6.04565 0 5.25 0C4.45435 0 3.69129 0.316071 3.12868 0.87868C2.56607 1.44129 2.25 2.20435 2.25 3C2.25 3.79565 2.56607 4.55871 3.12868 5.12132C3.69129 5.68393 4.45435 6 5.25 6ZM4.17891 7.125C1.87031 7.125 0 8.99531 0 11.3039C0 11.6883 0.311719 12 0.696094 12H9.80391C10.1883 12 10.5 11.6883 10.5 11.3039C10.5 8.99531 8.62969 7.125 6.32109 7.125H4.17891Z" fill="#FF5A36"/>
</g>
<defs>
<clipPath id="clip0_774_2355">
<path d="M0 0H10.5V12H0V0Z" fill="white"/>
</clipPath>
</defs>
</svg>
