<svg width="32" height="32" viewBox="0 0 32 32" fill="none" xmlns="http://www.w3.org/2000/svg">
<path d="M24 0C28.4183 0 32 3.58172 32 8V24C32 28.4183 28.4183 32 24 32H8C3.58172 32 0 28.4183 0 24V8C0 3.58172 3.58172 0 8 0H24Z" fill="#D1FAE5"/>
<path d="M24 0C28.4183 0 32 3.58172 32 8V24C32 28.4183 28.4183 32 24 32H8C3.58172 32 0 28.4183 0 24V8C0 3.58172 3.58172 0 8 0H24Z" stroke="#E5E7EB"/>
<path d="M24 6H14C13.2044 6 12.4413 6.31607 11.8787 6.87868C11.3161 7.44129 11 8.20435 11 9V16C11 16.7956 11.3161 17.5587 11.8787 18.1213C12.4413 18.6839 13.2044 19 14 19H24C24.7956 19 25.5587 18.6839 26.1213 18.1213C26.6839 17.5587 27 16.7956 27 16V9C27 8.20435 26.6839 7.44129 26.1213 6.87868C25.5587 6.31607 24.7956 6 24 6ZM25 16C25 16.2652 24.8946 16.5196 24.7071 16.7071C24.5196 16.8946 24.2652 17 24 17H14C13.7348 17 13.4804 16.8946 13.2929 16.7071C13.1054 16.5196 13 16.2652 13 16V9C13 8.73478 13.1054 8.48043 13.2929 8.29289C13.4804 8.10536 13.7348 8 14 8H24C24.2652 8 24.5196 8.10536 24.7071 8.29289C24.8946 8.48043 25 8.73478 25 9V16ZM21.5 12C21.13 12.0022 20.7738 12.1411 20.5 12.39C20.285 12.1946 20.0178 12.0658 19.7309 12.0193C19.4441 11.9728 19.1499 12.0107 18.8842 12.1283C18.6185 12.2458 18.3926 12.438 18.234 12.6816C18.0755 12.9251 17.9911 13.2094 17.9911 13.5C17.9911 13.7906 18.0755 14.0749 18.234 14.3184C18.3926 14.562 18.6185 14.7542 18.8842 14.8717C19.1499 14.9893 19.4441 15.0272 19.7309 14.9807C20.0178 14.9342 20.285 14.8054 20.5 14.61C20.6806 14.7741 20.8985 14.8917 21.1348 14.9526C21.3711 15.0134 21.6187 15.0157 21.8561 14.9592C22.0935 14.9027 22.3135 14.7892 22.4971 14.6284C22.6807 14.4676 22.8223 14.2645 22.9096 14.0366C22.9969 13.8088 23.0273 13.563 22.9981 13.3208C22.969 13.0785 22.8812 12.847 22.7423 12.6463C22.6034 12.4457 22.4177 12.2819 22.2012 12.1693C21.9847 12.0567 21.744 11.9986 21.5 12ZM20 21C19.7348 21 19.4804 21.1054 19.2929 21.2929C19.1054 21.4804 19 21.7348 19 22V23C19 23.2652 18.8946 23.5196 18.7071 23.7071C18.5196 23.8946 18.2652 24 18 24H8C7.73478 24 7.48043 23.8946 7.29289 23.7071C7.10536 23.5196 7 23.2652 7 23V19H8C8.26522 19 8.51957 18.8946 8.70711 18.7071C8.89464 18.5196 9 18.2652 9 18C9 17.7348 8.89464 17.4804 8.70711 17.2929C8.51957 17.1054 8.26522 17 8 17H7V16C7 15.7348 7.10536 15.4804 7.29289 15.2929C7.48043 15.1054 7.73478 15 8 15C8.26522 15 8.51957 14.8946 8.70711 14.7071C8.89464 14.5196 9 14.2652 9 14C9 13.7348 8.89464 13.4804 8.70711 13.2929C8.51957 13.1054 8.26522 13 8 13C7.20435 13 6.44129 13.3161 5.87868 13.8787C5.31607 14.4413 5 15.2044 5 16V23C5 23.7956 5.31607 24.5587 5.87868 25.1213C6.44129 25.6839 7.20435 26 8 26H18C18.7956 26 19.5587 25.6839 20.1213 25.1213C20.6839 24.5587 21 23.7956 21 23V22C21 21.7348 20.8946 21.4804 20.7071 21.2929C20.5196 21.1054 20.2652 21 20 21ZM10 22H11C11.2652 22 11.5196 21.8946 11.7071 21.7071C11.8946 21.5196 12 21.2652 12 21C12 20.7348 11.8946 20.4804 11.7071 20.2929C11.5196 20.1054 11.2652 20 11 20H10C9.73478 20 9.48043 20.1054 9.29289 20.2929C9.10536 20.4804 9 20.7348 9 21C9 21.2652 9.10536 21.5196 9.29289 21.7071C9.48043 21.8946 9.73478 22 10 22Z" fill="#16A34A"/>
</svg>
