<svg width="32" height="32" viewBox="0 0 32 32" fill="none" xmlns="http://www.w3.org/2000/svg">
<path d="M24 0C28.4183 0 32 3.58172 32 8V24C32 28.4183 28.4183 32 24 32H8C3.58172 32 0 28.4183 0 24V8C0 3.58172 3.58172 0 8 0H24Z" fill="#DBEAFE"/>
<path d="M24 0C28.4183 0 32 3.58172 32 8V24C32 28.4183 28.4183 32 24 32H8C3.58172 32 0 28.4183 0 24V8C0 3.58172 3.58172 0 8 0H24Z" stroke="#E5E7EB"/>
<path d="M24 28H8V4H24V28Z" stroke="#E5E7EB"/>
<path d="M24 24H8V8H24V24Z" stroke="#E5E7EB"/>
<path d="M13.75 9.5H18.25C18.3875 9.5 18.5 9.6125 18.5 9.75V11H13.5V9.75C13.5 9.6125 13.6125 9.5 13.75 9.5ZM12 9.75V11H10C8.89688 11 8 11.8969 8 13V16H14H18H24V13C24 11.8969 23.1031 11 22 11H20V9.75C20 8.78438 19.2156 8 18.25 8H13.75C12.7844 8 12 8.78438 12 9.75ZM24 17H18V18C18 18.5531 17.5531 19 17 19H15C14.4469 19 14 18.5531 14 18V17H8V21C8 22.1031 8.89688 23 10 23H22C23.1031 23 24 22.1031 24 21V17Z" fill="#2563EB"/>
</svg>
