<svg width="32" height="32" viewBox="0 0 32 32" fill="none" xmlns="http://www.w3.org/2000/svg">
<path d="M16 0C24.8366 0 32 7.16344 32 16C32 24.8366 24.8366 32 16 32C7.16344 32 0 24.8366 0 16C0 7.16344 7.16344 0 16 0Z" fill="#DCFCE7"/>
<path d="M16 0C24.8366 0 32 7.16344 32 16C32 24.8366 24.8366 32 16 32C7.16344 32 0 24.8366 0 16C0 7.16344 7.16344 0 16 0Z" stroke="#E5E7EB"/>
<path d="M20.5 24H11.5V8H20.5V24Z" stroke="#E5E7EB"/>
<g clip-path="url(#clip0_689_490)">
<path d="M15.4701 20.5297C15.7631 20.8227 16.2389 20.8227 16.5318 20.5297L20.2818 16.7797C20.5748 16.4867 20.5748 16.0109 20.2818 15.718C19.9889 15.425 19.5131 15.425 19.2201 15.718L16.7498 18.1906V11C16.7498 10.5852 16.4146 10.25 15.9998 10.25C15.585 10.25 15.2498 10.5852 15.2498 11V18.1883L12.7795 15.7203C12.4865 15.4273 12.0107 15.4273 11.7178 15.7203C11.4248 16.0133 11.4248 16.4891 11.7178 16.782L15.4678 20.532L15.4701 20.5297Z" fill="#16A34A"/>
</g>
<defs>
<clipPath id="clip0_689_490">
<path d="M11.5 9.5H20.5V21.5H11.5V9.5Z" fill="white"/>
</clipPath>
</defs>
</svg>
