<svg width="32" height="32" viewBox="0 0 32 32" fill="none" xmlns="http://www.w3.org/2000/svg">
<path d="M16 0C24.8366 0 32 7.16344 32 16C32 24.8366 24.8366 32 16 32C7.16344 32 0 24.8366 0 16C0 7.16344 7.16344 0 16 0Z" fill="#FEE2E2"/>
<path d="M16 0C24.8366 0 32 7.16344 32 16C32 24.8366 24.8366 32 16 32C7.16344 32 0 24.8366 0 16C0 7.16344 7.16344 0 16 0Z" stroke="#E5E7EB"/>
<path d="M20.5 24H11.5V8H20.5V24Z" stroke="#E5E7EB"/>
<g clip-path="url(#clip0_689_498)">
<path d="M16.5295 10.4697C16.2365 10.1768 15.7607 10.1768 15.4678 10.4697L11.7178 14.2197C11.4248 14.5127 11.4248 14.9885 11.7178 15.2814C12.0107 15.5744 12.4865 15.5744 12.7795 15.2814L15.2498 12.8088V19.9994C15.2498 20.4143 15.585 20.7494 15.9998 20.7494C16.4146 20.7494 16.7498 20.4143 16.7498 19.9994V12.8088L19.2201 15.2791C19.5131 15.5721 19.9889 15.5721 20.2818 15.2791C20.5748 14.9861 20.5748 14.5104 20.2818 14.2174L16.5318 10.4674L16.5295 10.4697Z" fill="#DC2626"/>
</g>
<defs>
<clipPath id="clip0_689_498">
<path d="M11.5 9.5H20.5V21.5H11.5V9.5Z" fill="white"/>
</clipPath>
</defs>
</svg>
